<?xml version="1.0" standalone="no"?>
<!DOCTYPE svg PUBLIC "-//W3C//DTD SVG 20010904//EN"
 "http://www.w3.org/TR/2001/REC-SVG-20010904/DTD/svg10.dtd">
<svg version="1.0" xmlns="http://www.w3.org/2000/svg"
 width="590.000000pt" height="423.000000pt" viewBox="0 0 590.000000 423.000000"
 preserveAspectRatio="xMidYMid meet">

<g transform="translate(0.000000,423.000000) scale(0.100000,-0.100000)"
fill="#000000" stroke="none">
<path d="M5580 3081 c0 -6 4 -13 10 -16 6 -3 7 1 4 9 -7 18 -14 21 -14 7z"/>
<path d="M2255 2828 c-218 -18 -390 -44 -427 -64 -14 -7 -35 -14 -46 -14 -20
0 -239 -64 -277 -81 -11 -4 -69 -27 -130 -50 -60 -22 -124 -52 -142 -65 -17
-13 -40 -24 -51 -24 -11 0 -31 -9 -45 -20 -14 -11 -29 -20 -34 -20 -5 0 -30
-13 -56 -30 -25 -16 -82 -48 -127 -71 -44 -23 -80 -45 -80 -50 0 -4 -10 -11
-22 -15 -13 -3 -41 -19 -63 -35 -22 -16 -62 -44 -90 -63 -27 -18 -66 -48 -86
-67 -19 -19 -52 -47 -72 -62 -21 -16 -49 -46 -62 -68 -14 -21 -40 -49 -58 -60
-87 -58 -229 -286 -292 -473 -26 -76 -26 -83 -23 -275 3 -160 7 -202 21 -226
9 -17 24 -60 33 -95 35 -136 105 -230 254 -342 86 -64 145 -95 274 -145 307
-117 424 -137 816 -136 314 0 420 12 646 72 390 103 654 359 654 632 0 96 -26
112 -217 134 -162 19 -454 19 -709 0 -110 -8 -352 -17 -539 -20 -328 -6 -341
-7 -362 -27 -13 -12 -23 -33 -23 -46 0 -55 91 -134 173 -152 23 -5 70 -15 103
-24 97 -24 176 -35 415 -55 293 -26 571 -59 617 -75 53 -18 63 -40 32 -71 -46
-45 -184 -115 -295 -150 -160 -49 -244 -64 -440 -76 -192 -11 -317 -3 -463 31
-77 18 -231 75 -277 102 -11 6 -42 23 -70 36 -27 13 -72 43 -100 66 -27 23
-70 56 -96 73 -53 36 -125 118 -167 189 -16 28 -41 68 -55 90 -64 96 -86 330
-47 505 22 96 83 230 132 289 81 96 237 253 265 267 18 8 35 24 39 35 3 11 8
17 11 14 9 -8 59 21 80 46 34 43 242 166 391 233 54 24 120 55 149 69 28 14
64 28 80 32 15 4 52 18 82 31 30 13 73 28 95 33 52 11 197 54 256 76 25 9 61
18 80 21 19 2 55 8 80 13 269 58 600 63 735 13 22 -8 56 -18 75 -22 45 -10
143 -54 177 -81 14 -11 31 -20 37 -20 7 0 53 -22 104 -49 51 -27 102 -52 114
-55 13 -3 90 -53 173 -111 82 -58 156 -104 165 -103 27 6 16 27 -33 62 -26 19
-66 55 -88 80 -22 25 -47 46 -55 46 -7 0 -28 13 -46 28 -18 16 -62 46 -98 67
-36 21 -74 46 -86 57 -11 10 -49 33 -85 51 -35 18 -75 40 -89 49 -36 24 -258
108 -285 108 -12 0 -38 6 -56 14 -29 12 -259 40 -286 34 -4 0 -53 -5 -108 -10z"/>
<path d="M5100 2727 c-116 -42 -224 -115 -282 -192 -62 -82 -42 -103 34 -37
72 62 207 156 241 169 46 17 87 16 94 -3 3 -8 -5 -66 -17 -127 -12 -62 -28
-150 -35 -197 -7 -47 -19 -118 -26 -157 -10 -55 -10 -76 -1 -85 21 -21 41 10
72 111 55 178 63 227 64 386 l1 150 -40 3 c-23 1 -68 -8 -105 -21z"/>
<path d="M3752 2473 c-47 -23 -77 -68 -96 -144 -15 -62 -15 -70 3 -155 26
-120 36 -149 73 -221 22 -43 38 -63 50 -63 36 0 32 32 -18 129 -48 93 -49 98
-48 181 0 63 6 97 21 131 32 69 45 79 115 79 92 0 194 -57 298 -167 80 -84
110 -99 110 -54 0 46 -183 231 -271 275 -43 21 -67 26 -128 26 -50 0 -88 -6
-109 -17z"/>
<path d="M3298 2289 c-25 -14 -70 -114 -66 -145 7 -62 71 -56 119 11 39 53 49
113 24 131 -22 16 -53 17 -77 3z"/>
<path d="M1385 2008 c-16 -6 -59 -29 -95 -51 -36 -22 -99 -60 -140 -85 -41
-25 -95 -61 -119 -81 -24 -20 -58 -47 -76 -61 -121 -94 -163 -244 -111 -393
40 -113 88 -159 149 -143 38 10 154 118 205 191 87 125 107 125 74 1 -26 -98
-27 -144 -8 -191 25 -58 71 -47 196 46 36 26 92 75 125 108 33 34 64 61 70 61
6 0 16 -19 23 -42 19 -65 55 -123 78 -126 25 -4 98 72 120 124 8 19 45 65 82
102 63 63 133 142 165 186 19 26 51 17 55 -17 2 -15 -2 -27 -8 -27 -19 0 -140
-258 -140 -299 0 -42 23 -81 49 -81 32 0 96 53 176 146 88 103 232 240 242
230 4 -4 -10 -39 -30 -79 -41 -82 -65 -152 -73 -211 -13 -90 70 -125 163 -71
23 14 43 30 43 35 0 5 26 28 58 52 31 23 80 63 107 89 29 28 56 45 62 41 6 -4
22 -34 34 -67 23 -64 75 -161 90 -171 16 -10 10 -46 -16 -90 -44 -75 -92 -224
-98 -307 -7 -78 -7 -78 24 -106 36 -33 65 -43 219 -72 106 -20 151 -22 605
-26 270 -2 564 -8 655 -14 91 -6 269 -8 396 -6 l231 4 66 52 c66 52 83 83 51
95 -9 3 -29 -3 -45 -14 -16 -12 -58 -34 -93 -50 l-65 -30 -198 10 c-109 5
-243 14 -298 20 -55 5 -201 15 -325 20 -306 15 -857 45 -1045 59 l-90 6 1 95
c0 122 17 197 62 289 36 72 76 111 113 111 19 0 112 80 157 135 58 71 82 115
82 151 l0 35 -80 -66 c-83 -69 -118 -85 -186 -85 -43 0 -66 17 -79 58 -13 44
7 83 89 177 78 89 156 219 156 260 0 50 -43 69 -105 45 -76 -29 -234 -232
-274 -353 -19 -55 -31 -73 -75 -111 -63 -53 -99 -69 -137 -61 -42 9 -51 27
-44 79 8 48 29 82 107 171 26 30 52 63 58 75 15 27 5 87 -21 129 -18 30 -20
31 -47 17 -15 -8 -127 -111 -250 -230 -122 -119 -227 -216 -232 -216 -28 0 11
67 94 160 41 46 101 154 115 207 17 64 -14 112 -72 113 -28 0 -112 -55 -151
-99 -11 -11 -25 -21 -32 -21 -12 0 -85 -71 -195 -187 -37 -39 -113 -103 -123
-103 -22 0 4 49 62 116 104 122 122 148 122 182 0 39 -31 62 -84 62 -34 0 -45
-7 -89 -52 -47 -50 -76 -89 -122 -162 -11 -18 -30 -45 -42 -60 -13 -16 -23
-35 -23 -42 0 -27 -34 -82 -56 -93 -13 -6 -24 -15 -24 -21 0 -15 -102 -70
-132 -70 -33 0 -58 32 -58 75 0 31 64 149 100 185 32 32 41 86 23 138 l-15 46
32 27 32 27 -17 47 c-10 25 -26 50 -36 55 -23 13 -106 11 -144 -2z m-5 -232
c0 -8 -4 -18 -10 -21 -5 -3 -54 -66 -109 -139 -139 -185 -219 -256 -278 -244
-15 3 -18 13 -16 65 2 75 18 108 80 163 80 70 280 187 326 190 4 0 7 -6 7 -14z"/>
<path d="M3785 1558 c20 -165 43 -228 94 -269 108 -86 245 -161 367 -200 38
-12 78 -28 89 -35 11 -7 74 -29 140 -49 105 -32 130 -36 200 -33 114 6 167 37
257 148 57 71 72 98 92 165 52 175 36 178 -49 9 -66 -133 -90 -167 -138 -199
-88 -60 -259 -45 -477 40 -164 63 -414 185 -446 216 -48 46 -92 137 -100 202
-5 40 -11 57 -21 57 -12 0 -14 -10 -8 -52z"/>
<path d="M5563 1143 c-40 -5 -44 -29 -7 -43 15 -6 63 -16 108 -23 129 -21 143
-36 134 -143 -8 -91 -17 -96 -228 -109 -91 -6 -124 -3 -235 18 -172 34 -204
37 -210 26 -7 -11 42 -33 173 -78 78 -27 117 -34 238 -42 104 -7 157 -6 187 2
102 27 181 205 132 299 -23 44 -90 79 -176 90 -41 5 -76 9 -79 8 -3 -1 -20 -3
-37 -5z"/>
</g>
</svg>
